<svg width="393" height="160" viewBox="0 0 393 160" fill="none" xmlns="http://www.w3.org/2000/svg">
<g clip-path="url(#clip0_6191_24019)">
<rect width="393" height="160" fill="#2196F3"/>
<g clip-path="url(#clip1_6191_24019)">
<path fill-rule="evenodd" clip-rule="evenodd" d="M325.663 -7.30051C326.795 -4.98999 328.039 -2.73766 329.389 -0.54954C332.06 -6.40749 335.047 -12.1236 338.338 -17.6719C339.014 -18.7615 341.388 -21.744 341.388 -21.744L346.136 -18.9034C346.136 -18.9034 342.752 -14.0857 341.328 -11.5289C339.064 -7.60839 337.003 -3.57479 335.156 0.557419C335.326 0.528851 335.468 0.509966 335.593 0.493494C335.771 0.469748 335.912 0.451014 336.046 0.41551C338.954 -0.325306 341.814 -1.23449 344.616 -2.30723C346.874 -5.39316 348.767 -8.72923 350.254 -12.2505C347.464 -9.29206 345.008 -6.03536 342.93 -2.54294C342.566 -4.62829 342.862 -6.77377 343.771 -8.68594C344.955 -11.3558 346.853 -13.648 349.255 -15.3148C350.427 -16.0941 351.711 -16.6882 353.065 -17.0778C353.121 -17.0995 353.178 -17.1091 353.239 -17.1067C353.299 -17.1043 353.356 -17.0875 353.409 -17.061C353.462 -17.0345 353.51 -16.9961 353.546 -16.9504C353.582 -16.9047 353.609 -16.8518 353.623 -16.794C353.922 -15.5577 353.975 -14.2733 353.777 -13.0178C353.255 -10.2109 351.932 -7.6132 349.967 -5.53747C349.304 -4.82552 348.572 -4.18092 347.783 -3.60847C352.12 -5.78762 356.32 -8.22173 360.365 -10.9012L366.116 -8.2987L365.712 -7.88499L364.692 -7.05519C357.907 -1.84783 350.225 2.07032 342.02 4.50924C343.488 4.59823 344.931 4.9061 346.307 5.42083C349.085 6.45508 351.543 8.20369 353.429 10.4863C354.27 11.5494 354.922 12.7496 355.35 14.0364C355.374 14.0893 355.384 14.1471 355.379 14.2048C355.374 14.2625 355.355 14.3178 355.326 14.3683C355.297 14.4188 355.257 14.4597 355.206 14.491C355.156 14.5199 355.1 14.5391 355.042 14.5439C353.693 14.8181 352.31 14.871 350.946 14.6979C347.978 14.2336 345.181 13.0118 342.829 11.1477C341.044 9.8104 339.661 8.00887 338.829 5.94036C342.388 8.14356 346.167 9.97636 350.104 11.4099C347.045 8.93248 343.731 6.78941 340.217 5.01674C338.021 5.62046 335.791 6.15442 333.511 6.58015C333.164 6.60661 332.832 6.73168 332.556 6.94094C332.279 7.1526 332.072 7.43883 331.957 7.76594C330.165 12.1098 328.621 16.5138 327.209 20.9635L324.681 29.5815C321.838 40.4725 319.755 51.5462 318.449 62.7258C318.252 64.3756 318.098 66.0264 317.944 67.6769C317.865 68.5241 317.786 69.3713 317.701 70.2181C318.151 69.9127 318.524 69.5086 318.793 69.0348C324.178 60.5996 330.555 52.8354 337.785 45.9059C339.341 39.6066 340.14 33.1461 340.159 26.6591C337.645 33.0932 335.882 39.7918 334.901 46.6275C332.902 43.5175 331.914 39.8736 332.063 36.1863C332.152 31.2171 333.672 26.3801 336.443 22.2527C337.811 20.3045 339.493 18.5919 341.417 17.1873C341.496 17.1175 341.588 17.067 341.686 17.0358C341.787 17.0045 341.891 16.9949 341.994 17.0069C342.097 17.0189 342.196 17.0526 342.285 17.1055C342.374 17.1584 342.451 17.2306 342.511 17.3148C343.822 19.1355 344.784 21.1824 345.347 23.3519C346.422 28.136 346.052 33.1268 344.279 37.6992C343.699 39.2145 342.963 40.6649 342.083 42.0311C347.911 36.9921 354.234 32.5496 360.955 28.7734C365.051 23.1956 368.488 17.1656 371.198 10.8038C366.352 15.9438 362.08 21.5961 358.463 27.6597C357.837 24.0446 358.342 20.3261 359.911 17.0069C361.979 12.3648 365.284 8.37928 369.467 5.47855C371.504 4.11718 373.743 3.08292 376.1 2.41186C376.194 2.37338 376.298 2.35414 376.399 2.35895C376.5 2.36376 376.601 2.39021 376.692 2.43591C376.783 2.48162 376.863 2.54655 376.928 2.62593C376.993 2.7053 377.038 2.79911 377.062 2.89772C377.575 5.05282 377.669 7.2873 377.334 9.47847C376.425 14.3659 374.121 18.8854 370.701 22.5005C369.743 23.5227 368.709 24.468 367.603 25.329C373.657 22.4115 379.932 19.9726 386.368 18.0363C387.886 17.5745 390.902 17.0069 390.902 17.0069L392.836 21.9545C385.647 24.1096 378.575 26.6351 371.648 29.519C367.304 31.5466 363.105 33.8677 359.078 36.4677L355.187 39.1544C357.133 39.0414 359.078 39.3444 360.897 40.0419C363.701 41.0642 366.184 42.8128 368.089 45.1074C368.928 46.1681 369.575 47.3707 369.998 48.6575C370.02 48.7104 370.027 48.7682 370.022 48.8259C370.018 48.8836 369.998 48.9389 369.969 48.987C369.941 49.0376 369.9 49.0784 369.852 49.1097C369.803 49.141 369.751 49.1602 369.693 49.1674C368.343 49.4392 366.96 49.4873 365.597 49.3093C362.629 48.8499 359.834 47.6281 357.489 45.7592C355.697 44.4243 354.309 42.6228 353.477 40.5518C357.041 42.7575 360.825 44.5878 364.764 46.0214C361.635 43.5007 358.251 41.3191 354.662 39.5104L351.314 41.8194C347.851 44.4796 344.541 47.3322 341.402 50.3652C340.607 51.1289 339.831 51.918 338.986 52.7777C338.559 53.2123 338.115 53.665 337.641 54.1415C338.707 54.2369 339.729 54.3337 340.724 54.4279C342.687 54.6137 344.541 54.7891 346.4 54.9232C357.445 55.8011 368.548 55.5942 379.552 54.3074C383.523 48.886 386.852 43.0292 389.476 36.8478C384.62 41.9589 380.343 47.5824 376.716 53.6219C376.091 50.0069 376.596 46.2884 378.164 42.9691C380.23 38.3246 383.535 34.3367 387.72 31.4408C389.755 30.0794 391.989 29.0451 394.344 28.3741C394.438 28.3332 394.541 28.314 394.645 28.3164C394.748 28.3188 394.852 28.3452 394.943 28.3909C395.034 28.4366 395.116 28.504 395.181 28.5833C395.246 28.6627 395.292 28.7565 395.316 28.8575C395.821 31.0102 395.91 33.2399 395.578 35.4263C394.678 40.3137 392.379 44.8356 388.954 48.4459C386.852 50.7332 384.329 52.5973 381.524 53.9394C389.471 52.3616 397.319 50.3171 405.026 47.8205L406 53.4199C398.693 55.7578 391.263 57.6988 383.744 59.231C385.423 59.5052 387.073 59.9357 388.67 60.5226C393.555 62.3025 397.885 65.3355 401.216 69.3186C402.671 71.1514 403.794 73.2223 404.54 75.4375C404.576 75.5313 404.591 75.6299 404.583 75.731C404.574 75.8296 404.542 75.9258 404.492 76.0124C404.439 76.0966 404.369 76.1711 404.285 76.224C404.201 76.277 404.105 76.3106 404.004 76.3227C401.659 76.7845 399.253 76.8686 396.882 76.5704C391.725 75.7887 386.861 73.6793 382.77 70.4514C379.66 68.1256 377.25 64.9939 375.802 61.3957C382.003 65.2176 388.581 68.3902 395.434 70.8652C390.173 66.6031 384.471 62.9158 378.424 59.8684C363.699 61.4679 348.827 61.1816 334.175 59.0169C333.917 58.976 333.653 59.0049 333.41 59.1035C333.167 59.2021 332.955 59.3633 332.799 59.5725C332.437 60.0482 332.06 60.5092 331.683 60.9711L331.683 60.9713C331.158 61.6141 330.632 62.2586 330.141 62.9471C324.765 70.3288 319.803 78.0039 315.281 85.934C315.224 86.035 315.135 86.112 315.026 86.1577C314.918 86.201 314.8 86.2106 314.687 86.1818L306.223 84.3826C306.079 84.3562 305.942 84.2984 305.822 84.2143C305.701 84.1301 305.6 84.0219 305.523 83.8968C301.343 76.6834 296.787 69.6938 291.873 62.9567C291.464 62.4051 291.032 61.8784 290.598 61.349C290.127 60.7749 289.654 60.1977 289.204 59.5821C289.047 59.3729 288.836 59.2117 288.593 59.1131C288.352 59.0145 288.088 58.9856 287.828 59.0265C273.411 61.1552 258.785 61.4655 244.291 59.9501C238.287 62.9759 232.627 66.6391 227.413 70.8772C234.265 68.4022 240.844 65.2297 247.045 61.4077C245.597 65.006 243.186 68.1376 240.077 70.4635C235.983 73.6889 231.119 75.7983 225.963 76.5824C223.591 76.8831 221.186 76.7989 218.841 76.3347C218.74 76.3251 218.643 76.289 218.559 76.2361C218.475 76.1831 218.403 76.111 218.352 76.0244C218.299 75.9378 218.268 75.8416 218.261 75.7406C218.251 75.642 218.268 75.5409 218.304 75.4471C219.05 73.2319 220.173 71.161 221.628 69.3282C224.945 65.3499 229.255 62.3121 234.126 60.5226C235.593 60.0007 237.101 59.6038 238.636 59.3392C230.989 57.8239 223.435 55.8925 216 53.5522L216.974 47.9528C225.094 50.5577 233.368 52.6647 241.746 54.2617C238.768 52.9172 236.093 50.9858 233.888 48.5806C230.463 44.9703 228.161 40.446 227.264 35.5586C226.934 33.3722 227.021 31.1425 227.526 28.9898C227.55 28.8912 227.596 28.7974 227.661 28.7156C227.726 28.6363 227.805 28.5689 227.899 28.5232C227.993 28.4775 228.094 28.451 228.197 28.4486C228.3 28.4462 228.401 28.4655 228.498 28.5064C230.852 29.1822 233.087 30.2165 235.122 31.5731C239.307 34.469 242.614 38.4569 244.678 43.1014C246.246 46.4182 246.751 50.1391 246.126 53.7542C242.513 47.6834 238.241 42.0263 233.39 36.8862C236.028 43.1062 239.379 49.0015 243.372 54.4542C254.085 55.6351 264.887 55.8059 275.633 54.9641C277.492 54.8306 279.329 54.6562 281.276 54.4714L281.277 54.4712C282.277 54.3763 283.306 54.2786 284.381 54.1824C283.108 52.8889 282.002 51.7859 280.912 50.6985L280.619 50.4061C277.485 47.3683 274.176 44.5133 270.707 41.8603L269.271 40.879C268.415 42.8248 267.075 44.5205 265.377 45.8025C263.03 47.669 260.235 48.8932 257.269 49.3526C255.903 49.5306 254.515 49.4825 253.163 49.2107C253.108 49.2035 253.053 49.1843 253.005 49.153C252.957 49.1217 252.916 49.0808 252.887 49.0303C252.858 48.9822 252.841 48.9269 252.839 48.8692C252.834 48.8139 252.846 48.7561 252.868 48.7032C253.291 47.4188 253.938 46.2162 254.78 45.1531C256.668 42.8705 259.124 41.1243 261.902 40.0876C263.451 39.5056 265.089 39.1977 266.743 39.176L262.885 36.5134C258.861 33.911 254.662 31.5875 250.316 29.5647C243.389 26.6784 236.317 24.1529 229.128 22.0002L231.062 17.0526C231.062 17.0526 234.075 17.6202 235.596 18.082C242.702 20.2168 249.605 22.9652 256.232 26.2931C254.608 25.3549 253.199 24.0779 252.105 22.5438C248.682 18.9287 246.381 14.4068 245.469 9.52177C245.137 7.33059 245.229 5.09612 245.743 2.94102C245.767 2.8424 245.813 2.7486 245.878 2.66922C245.943 2.58985 246.022 2.52491 246.114 2.47921C246.205 2.4311 246.306 2.40705 246.407 2.40224C246.508 2.39743 246.612 2.41667 246.705 2.45516C249.065 3.12622 251.304 4.16048 253.341 5.52184C257.524 8.42017 260.829 12.4081 262.897 17.0502C264.466 20.367 264.971 24.0879 264.345 27.703C260.728 21.6346 256.456 15.9799 251.61 10.835C253.885 17.238 257.068 23.2819 261.058 28.786C268.673 33.0678 275.776 38.1998 282.231 44.0852C280.665 42.1585 279.419 39.9914 278.539 37.6704C276.769 33.098 276.396 28.1047 277.471 23.3231C278.031 21.1535 278.993 19.1043 280.307 17.2859C280.367 17.2017 280.444 17.1296 280.533 17.0766C280.622 17.0237 280.72 16.9901 280.824 16.978C280.927 16.966 281.033 16.9756 281.132 17.0069C281.23 17.0382 281.324 17.0887 281.401 17.1584C283.328 18.5631 285.007 20.2756 286.375 22.2239C289.146 26.3537 290.666 31.1906 290.755 36.1575C290.907 39.8471 289.916 43.4911 287.919 46.5986C286.938 39.7653 285.175 33.0643 282.661 26.6303C282.707 33.4492 283.551 40.2392 285.177 46.8608C291.967 53.5474 297.98 60.9772 303.101 69.0083C303.371 69.4797 303.743 69.8862 304.193 70.1917C304.108 69.3441 304.029 68.4961 303.949 67.6481L303.949 67.647L303.949 67.6468L303.949 67.6466L303.949 67.6464L303.949 67.6462L303.949 67.646C303.795 65.997 303.64 64.3476 303.445 62.6993C302.149 51.5198 300.071 40.446 297.225 29.5551L294.685 20.9371C293.225 16.4874 291.681 12.0834 289.937 7.73948C289.824 7.41237 289.615 7.12374 289.338 6.91448C289.062 6.70282 288.73 6.57775 288.383 6.5537C286.31 6.15923 284.266 5.68781 282.248 5.14422C278.827 6.87119 275.602 8.96135 272.634 11.3834C276.569 9.9499 280.348 8.1171 283.91 5.9139C283.078 7.98 281.694 9.78154 279.91 11.1213C277.557 12.9829 274.76 14.2072 271.792 14.6714C270.426 14.8446 269.043 14.7917 267.696 14.5175C267.638 14.5127 267.583 14.4958 267.532 14.4645C267.484 14.4333 267.441 14.3924 267.412 14.3419C267.381 14.2914 267.364 14.236 267.359 14.1783C267.354 14.1206 267.366 14.0629 267.388 14.01C267.816 12.7256 268.468 11.5229 269.31 10.4598C271.215 8.17002 273.692 6.42141 276.492 5.39437C277.661 4.95902 278.883 4.67279 280.124 4.54291C271.847 2.11121 264.095 -1.82859 257.262 -7.08164C256.916 -7.34381 261.558 -10.894 261.558 -10.894C266.445 -7.73587 271.549 -4.92414 276.833 -2.478C275.313 -3.24528 273.947 -4.27953 272.797 -5.53267C270.832 -7.60839 269.51 -10.2061 268.988 -13.013C268.79 -14.2709 268.843 -15.5529 269.141 -16.7892C269.156 -16.8445 269.18 -16.8999 269.216 -16.9456C269.25 -16.9913 269.295 -17.0297 269.348 -17.0562C269.401 -17.0827 269.459 -17.0995 269.517 -17.1019C269.574 -17.1043 269.635 -17.0947 269.687 -17.073C271.042 -16.6882 272.328 -16.0941 273.497 -15.31C275.907 -13.648 277.81 -11.3534 278.993 -8.68113C279.886 -6.77858 280.172 -4.65234 279.814 -2.58383C277.735 -6.07865 275.28 -9.33295 272.49 -12.2914C274.063 -8.62821 276.054 -5.15504 278.423 -1.94644C280.869 -1.03245 283.361 -0.241125 285.889 0.420319C286.018 0.454548 286.154 0.47241 286.323 0.494757L286.324 0.494768C286.452 0.511675 286.6 0.531151 286.779 0.562227C284.932 -3.56998 282.873 -7.60358 280.607 -11.5241C279.241 -14.0809 275.859 -18.8986 275.859 -18.8986L280.607 -21.7392C280.607 -21.7392 282.411 -19.5264 283.195 -18.343C287.783 -10.9565 291.759 -3.22051 295.088 4.78751C295.942 3.30102 296.746 1.7867 297.499 0.247242C297.054 -3.54823 296.164 -7.27636 294.853 -10.8674C294.808 -6.80734 295.205 -2.7545 296.039 1.21896C294.36 -0.060627 293.117 -1.82608 292.477 -3.83446C291.532 -6.60049 291.363 -9.57337 291.991 -12.4284C292.306 -13.797 292.84 -15.1078 293.569 -16.3105C293.593 -16.3634 293.627 -16.4091 293.672 -16.4476C293.716 -16.486 293.769 -16.5149 293.824 -16.5317C293.879 -16.5486 293.939 -16.5534 293.997 -16.5462C294.055 -16.539 294.11 -16.5197 294.161 -16.4885C295.221 -15.7837 296.138 -14.8793 296.854 -13.8258C298.384 -11.411 299.188 -8.61128 299.168 -5.75385C299.144 -4.76529 299.024 -3.78154 298.812 -2.81704C300.496 -7.37017 301.908 -12.0195 303.038 -16.7386L308.972 -18.7734V-18.1336L308.794 -16.8444C307.385 -8.40683 304.436 -0.298746 300.094 7.07814C301.222 6.14009 302.488 5.37763 303.844 4.81721C306.593 3.6675 309.597 3.25861 312.556 3.63383C313.881 3.82865 315.163 4.25438 316.342 4.88937C316.395 4.91342 316.443 4.94709 316.479 4.99279C316.517 5.03849 316.544 5.089 316.556 5.14673C316.568 5.20205 316.568 5.26218 316.553 5.3175C316.539 5.37282 316.513 5.42574 316.474 5.46903C315.676 6.58987 314.699 7.56881 313.578 8.36976C311.113 10.063 308.251 11.0877 305.268 11.3402C303.05 11.5784 300.809 11.2055 298.788 10.2627C302.901 9.44971 306.92 8.21342 310.776 6.57063C306.848 6.84964 302.959 7.54957 299.18 8.65358C298.661 9.49298 298.127 10.327 297.577 11.1557C298.973 14.9619 300.225 18.8232 301.331 22.7314C305.98 38.6252 308.948 54.9641 310.185 71.4761C310.343 73.4171 310.473 75.3533 310.577 77.2872L310.661 77.393C310.709 77.4411 310.767 77.482 310.832 77.5084C310.894 77.5349 310.966 77.5493 311.034 77.5493C311.101 77.5493 311.171 77.5349 311.236 77.5084C311.301 77.482 311.358 77.4435 311.406 77.393C311.527 75.4279 311.657 73.4628 311.811 71.4737C313.052 54.9617 316.02 38.6252 320.664 22.729C322.416 16.8462 324.466 11.0617 326.806 5.39787C325.794 3.95442 324.835 2.49523 323.929 1.01923C320.152 -0.0847778 316.27 -0.782301 312.345 -1.06371C316.196 0.581474 320.21 1.81777 324.321 2.62834C322.303 3.57841 320.058 3.95363 317.841 3.70589C314.858 3.45574 311.996 2.43111 309.533 0.735409C308.407 -0.0607281 307.424 -1.04207 306.625 -2.16532C306.587 -2.20861 306.56 -2.26152 306.546 -2.31684C306.531 -2.37217 306.531 -2.42989 306.543 -2.48762C306.555 -2.54535 306.582 -2.59586 306.618 -2.64155C306.654 -2.68725 306.702 -2.72093 306.755 -2.74498C307.936 -3.37516 309.218 -3.79848 310.541 -4.00052C313.499 -4.37814 316.504 -3.96925 319.253 -2.81714C320.609 -2.2495 321.877 -1.48704 323.015 -0.556208C318.671 -7.93069 315.722 -16.0412 314.315 -24.4788C314.243 -24.9045 314.125 -25.768 314.125 -25.768V-26.3477L320.058 -24.3224C321.184 -19.6009 322.594 -14.9516 324.285 -10.4009C324.087 -11.3558 323.991 -12.3275 324.001 -13.3016C323.977 -16.1566 324.775 -18.9587 326.303 -21.3736C327.019 -22.4271 327.933 -23.3315 328.996 -24.0362C329.047 -24.0675 329.102 -24.0867 329.16 -24.0939C329.218 -24.1012 329.278 -24.0963 329.333 -24.0795C329.388 -24.0627 329.441 -24.0338 329.485 -23.9953C329.53 -23.9592 329.566 -23.9111 329.59 -23.8582C330.319 -22.6508 330.856 -21.3375 331.18 -19.9641C331.798 -17.1115 331.628 -14.1458 330.682 -11.3822C330.047 -9.37384 328.804 -7.60839 327.123 -6.3288C327.962 -10.3023 328.361 -14.3551 328.308 -18.4152C327.007 -14.8241 326.12 -11.0936 325.663 -7.30051ZM259.679 28.0229C259.783 28.0707 259.876 28.1225 259.962 28.1772C259.868 28.1256 259.773 28.0742 259.679 28.0229ZM267.629 39.7365C264.194 41.4658 260.959 43.5632 257.979 45.9877L258.025 45.9709C260.993 43.5593 264.213 41.4765 267.631 39.7557L268.957 40.6685L268.971 40.6601L267.629 39.7365ZM319.574 95.0595L302.73 91.2136C302.514 91.1703 302.319 91.0548 302.177 90.8888C302.035 90.7205 301.954 90.5112 301.949 90.2899V85.6382C301.958 85.4891 301.999 85.3447 302.071 85.2125C302.144 85.0802 302.245 84.9671 302.367 84.8805C302.49 84.7939 302.629 84.7338 302.776 84.7074C302.923 84.6809 303.074 84.6857 303.221 84.7266L319.933 88.5389C320.195 88.5894 320.433 88.7265 320.609 88.9286C320.782 89.1306 320.883 89.3856 320.895 89.6525V94.1383C320.885 94.2899 320.844 94.4366 320.77 94.5689C320.698 94.7012 320.597 94.8166 320.474 94.9032C320.351 94.9922 320.209 95.0523 320.063 95.0788C319.914 95.1052 319.76 95.1004 319.615 95.0619L319.574 95.0595ZM302.73 98.7564L319.574 102.557L319.615 102.605C319.76 102.643 319.914 102.648 320.063 102.622C320.209 102.595 320.351 102.535 320.474 102.446C320.597 102.359 320.698 102.244 320.77 102.112C320.844 101.979 320.885 101.833 320.895 101.681V97.1954C320.883 96.9284 320.782 96.6734 320.609 96.4714C320.433 96.2694 320.195 96.1323 319.933 96.0818L303.221 92.2695C303.074 92.2286 302.923 92.2237 302.776 92.2502C302.629 92.2767 302.49 92.3368 302.367 92.4234C302.245 92.51 302.144 92.6254 302.071 92.7553C301.999 92.8876 301.958 93.0319 301.949 93.181V97.8328C301.954 98.0541 302.035 98.2633 302.177 98.4317C302.319 98.5976 302.514 98.7131 302.73 98.7564ZM319.099 115.004H405.536L400.906 120.271H352.168C352.168 120.982 352.626 121.173 353.033 121.343C353.121 121.379 353.206 121.415 353.284 121.455C367.211 126.72 381.719 130.299 396.502 132.107L392.834 137.221C375.302 134.258 358.263 128.899 342.198 121.301C341.143 120.603 339.901 120.245 338.636 120.271H322.018C321.662 120.194 321.294 120.189 320.936 120.262C320.578 120.334 320.241 120.478 319.94 120.685C338.624 145 385.628 150.385 385.628 150.385L379.242 154.955C373.059 153.755 366.941 152.261 360.909 150.476C363.514 154.322 366.532 157.876 369.909 161.071L365.161 164.114C360.38 159.557 356.508 154.158 353.732 148.203C349.796 146.873 345.901 145.418 342.054 143.84C341.453 143.366 340.726 143.083 339.964 143.022C339.806 143.559 340.033 143.989 340.253 144.404C340.31 144.512 340.367 144.62 340.416 144.728C345.049 153.336 350.46 161.507 356.582 169.136L350.398 170.522C343.204 160.783 337.104 150.284 332.214 139.213C331.887 138.161 331.204 137.257 330.28 136.656C325.379 133.243 320.818 129.368 316.662 125.085C320.627 132.035 325.094 138.691 330.03 144.997L325.282 148.04C321.229 142.639 317.511 137.002 314.148 131.161C312.733 153.198 331.197 177.766 331.197 177.766L323.683 176.783C319.305 169.302 315.495 161.502 312.289 153.452C312.186 153.11 312.04 152.76 311.901 152.426C311.833 152.262 311.766 152.101 311.707 151.948C311.598 151.66 311.5 151.364 311.365 150.951L311.364 150.95L311.364 150.949C311.282 150.701 311.187 150.411 311.067 150.055C310.914 150.57 310.775 151.043 310.644 151.487L310.643 151.491C310.372 152.413 310.138 153.212 309.882 154.01C306.425 162.56 302.269 170.81 297.454 178.678L292.386 176.215C301.97 162.395 307.464 146.191 308.273 129.452C304.661 135.898 300.622 142.101 296.179 148.021L291.431 144.978C296.05 139.083 300.26 132.883 304.033 126.421C300.18 130.204 296.012 133.657 291.568 136.74C290.729 137.353 290.139 138.248 289.906 139.261C284.836 150.577 278.522 161.298 271.08 171.222L266.332 168.179C272.141 160.766 277.303 152.87 281.762 144.576C281.812 144.464 281.87 144.352 281.929 144.239C282.15 143.818 282.383 143.375 282.224 142.777C281.555 142.881 280.92 143.14 280.372 143.535C275.98 145.35 271.526 147.004 267.019 148.497C264.253 154.336 260.43 159.632 255.727 164.114L250.979 161.071C254.284 157.947 257.242 154.481 259.807 150.733C254.28 152.332 248.682 153.69 243.03 154.803L238.188 150.067C261.474 147.422 283.354 137.603 300.787 121.979L301.571 121.173C302.274 120.497 302.108 120.12 301.086 120.12H296.6C295.178 120.12 293.756 120.128 292.333 120.136H292.331H292.33H292.328H292.326H292.325H292.323H292.321H292.32H292.318H292.317H292.316H292.316H292.315H292.315H292.314H292.314H292.314H292.313H292.313H292.312C289.456 120.152 286.597 120.168 283.734 120.12C282.39 120.125 281.076 120.538 279.972 121.303C263.896 128.853 246.854 134.159 229.325 137.069L225.539 131.956C240.324 130.171 254.838 126.614 268.769 121.361C268.853 121.315 268.945 121.273 269.04 121.231C269.385 121.077 269.768 120.905 269.954 120.413C269.283 120.088 268.526 119.992 267.795 120.141H219.271L217.657 114.934C217.657 114.934 274.419 114.874 302.798 114.934L307.084 109.193C307.243 108.988 307.459 108.837 307.705 108.757C307.95 108.678 308.215 108.673 308.462 108.743L314.396 110.294C314.579 110.347 314.745 110.446 314.882 110.578L319.099 115.004ZM318.692 115.004C318.692 114.927 318.777 114.947 318.888 115.004H318.692ZM302.861 106.807L319.572 110.619L319.584 110.667C319.731 110.706 319.883 110.711 320.032 110.684C320.181 110.658 320.32 110.597 320.443 110.508C320.568 110.422 320.669 110.306 320.741 110.174C320.816 110.042 320.857 109.895 320.866 109.744V104.546C320.854 104.329 320.773 104.123 320.631 103.957C320.489 103.793 320.296 103.678 320.082 103.634L303.464 99.8461C303.289 99.7883 303.101 99.7739 302.916 99.8028C302.733 99.8316 302.558 99.9014 302.406 100.01C302.255 100.118 302.132 100.262 302.045 100.426C301.959 100.592 301.911 100.774 301.911 100.96V105.696C301.92 105.96 302.019 106.213 302.192 106.415C302.365 106.617 302.601 106.754 302.861 106.807Z" fill="white" fill-opacity="0.15"/>
<path d="M334.176 110.222C336.193 108.641 338.249 107.055 340.341 105.469C343.416 103.137 346.464 100.881 349.482 98.698C351.571 98.2709 356.488 100.814 356.133 103.216C355.993 104.169 355.141 104.931 353.185 106.391C349.291 109.3 347.143 110.903 345.542 112.096C343.963 111.788 342.196 111.54 340.264 111.422C336.384 111.183 332.998 111.536 330.3 112.037C330.245 112.447 330.834 112.258 331.119 112.269C339.988 112.615 353.654 112.14 359 120.786C360.073 122.523 360.053 123.723 359.895 125.78C359.558 130.192 357.348 133.039 353.308 134.688C345.08 138.048 329.619 134.778 313.94 134.194C311.056 134.086 308.748 134.091 307.524 134.102C309.635 131.579 310.995 129.319 311.842 127.733C313.94 123.802 314.214 121.531 316.538 117.232C317.788 114.917 319.023 113.148 319.853 112.033C318.955 113.042 317.558 114.735 316.181 117.041C313.724 121.154 313.535 123.517 311.378 127.348C309.672 130.379 307.87 132.312 306.422 133.865C299.504 141.289 290.052 143.946 287.75 144.594C266.781 150.487 245.571 138.558 246.007 136.289C246.107 135.764 247.062 135.967 253.286 134.222C255.594 133.574 257.554 132.961 259.066 132.463C259.996 132.971 261.343 133.661 263.023 134.342C266.065 135.578 276.973 140.098 287.542 135.799C289.384 135.05 295.812 132.183 299.986 125.753C303.282 120.675 303.711 115.627 309.274 110.684C310.756 109.368 312.131 108.476 313.043 107.938C313.314 108.233 313.64 108.546 314.026 108.855C314.812 109.486 315.587 109.891 316.211 110.152C314.665 108.084 313.152 105.855 311.704 103.455C302.776 88.6503 300.115 73.5612 299.519 62.2432C300.741 61.6519 302.057 61.065 303.472 60.5022C305.351 59.7532 307.143 59.1488 308.811 58.6582C309.998 66.7437 312.826 78.8369 320.199 91.69C324.755 99.6331 329.831 105.745 334.178 110.22L334.176 110.222Z" fill="#063D6A"/>
<path d="M311.983 106.863C311.147 107.397 309.682 108.389 308.052 109.848C300.578 116.538 300.637 123.205 293.513 129.059C293.143 129.363 290.957 131.137 287.959 132.508C277.83 137.14 266.861 133.318 262.227 131.36C263.392 130.789 265.03 129.935 266.911 128.772C266.911 128.772 271.803 126.08 275.303 122.399C279.398 118.091 279.935 113.343 283.327 100.643C287.979 83.2264 291.106 76.6607 292.674 73.5947C294.809 69.4206 296.892 66.1947 298.272 64.1777C298.48 70.8419 299.581 80.3399 303.657 90.8957C306.175 97.4176 309.213 102.744 311.986 106.865L311.983 106.863Z" fill="#063D6A"/>
<path d="M314.257 57.407C316.313 62.7659 319.261 69.0928 323.54 75.7592C329.795 85.5025 336.711 92.574 342.258 97.4029C339.941 100.822 337.626 104.24 335.309 107.661C328.562 100.491 319.957 89.3722 314.174 73.9787C312.1 68.4599 310.707 63.2389 309.77 58.5129C310.197 58.2304 310.814 57.8932 311.609 57.6566C312.706 57.3325 313.659 57.35 314.257 57.4092V57.407Z" fill="#063D6A"/>
<path d="M326.628 54.0959C326.69 54.8909 326.906 55.9683 327.671 56.8268C329.083 58.4124 331.42 58.2087 333.424 58.4102C335.603 58.6292 338.599 59.4504 342.107 62.1266C342.055 66.2416 341.68 71.1647 340.614 76.6376C339.683 81.4074 338.426 85.5749 337.147 89.0658C333.621 85.9429 329.46 81.6833 325.485 76.1054C320.439 69.0273 317.428 62.2624 315.602 57.1115C315.825 57.1203 317.06 57.1531 318.072 56.1939C318.979 55.3354 319.092 54.2623 319.112 54.0039C319.756 54.3499 320.978 54.8952 322.603 54.9653C324.513 55.0485 325.96 54.4331 326.628 54.0959Z" fill="#063D6A"/>
<path d="M355.98 100.131C354.966 98.9614 353.792 98.4927 353.21 98.2693C351.931 97.7788 350.783 97.7372 350.067 97.7722C347.864 91.2592 345.661 84.7439 343.456 78.2308C343.208 77.5344 342.958 76.838 342.711 76.1416C343.418 75.7934 344.272 75.2831 345.131 74.5276C346.914 72.9595 347.776 71.1637 348.184 70.1016C349.55 73.7151 350.921 77.3264 352.292 80.9333C354.368 86.3952 356.453 91.857 358.542 97.3145C358.621 97.77 358.696 98.5497 358.459 99.4651C358.133 100.733 357.399 101.535 357.047 101.874C356.863 101.425 356.541 100.779 355.978 100.126L355.98 100.131Z" fill="#063D6A"/>
<path d="M346.668 64.5073C347.194 65.2584 347.347 65.9768 347.413 66.2987C348.052 69.461 345.286 72.8008 345.096 73.0264C344.575 73.6418 343.718 74.509 342.422 75.293C342.845 73.5125 343.219 71.4474 343.44 69.1391C343.666 66.7871 343.685 64.6518 343.607 62.7969C343.946 62.8056 344.535 62.8648 345.179 63.1823C346.02 63.5984 346.465 64.216 346.668 64.5051V64.5073Z" fill="#063D6A"/>
<path d="M337.581 34.5319C337.397 32.988 336.71 33.5048 336.438 33.2135C336.342 33.1084 336.256 31.0082 336.101 30.3775C334.738 24.8718 328.072 20.2969 322.488 21.0897C315.594 22.0708 311.989 25.531 310.638 32.2499C310.546 32.7054 310.668 33.288 310.589 33.5683C310.532 33.7676 309.656 33.4851 309.426 35.2656C309.275 36.4372 309.457 40.1274 309.687 41.2881C309.893 42.3217 310.697 43.132 311.746 42.6305C312.506 46.9821 317.28 52.5972 321.791 53.1338C328.462 53.9265 333.604 47.9807 335.468 42.1619C335.628 42.0546 336.282 42.8035 336.843 41.783C337.415 40.7427 337.732 35.8131 337.579 34.5297L337.581 34.5319ZM319.411 40.1514C318.476 40.1514 317.718 38.7893 317.718 37.1095C317.718 35.4298 318.476 34.0676 319.411 34.0676C320.149 34.0676 320.775 34.9173 321.005 36.0999C321.224 36.7898 321.231 37.6132 320.977 38.2593C320.725 39.3674 320.118 40.1493 319.411 40.1493V40.1514ZM327.38 40.1514C326.445 40.1514 325.687 38.7893 325.687 37.1095C325.687 35.4298 326.445 34.0676 327.38 34.0676C328.315 34.0676 329.073 35.4298 329.073 37.1095C329.073 38.7893 328.315 40.1514 327.38 40.1514Z" fill="#063D6A"/>
<ellipse cx="319.758" cy="36.8281" rx="2" ry="3.5" fill="#78BEF8"/>
<ellipse cx="327.758" cy="36.8281" rx="2" ry="3.5" fill="#78BEF8"/>
</g>
</g>
<defs>
<clipPath id="clip0_6191_24019">
<rect width="393" height="160" fill="white"/>
</clipPath>
<clipPath id="clip1_6191_24019">
<rect width="219" height="219" fill="white" transform="translate(197 -25)"/>
</clipPath>
</defs>
</svg>
